<svg xmlns="http://www.w3.org/2000/svg" viewBox="0 0 420 120" role="img" aria-labelledby="title">
  <title id="title">QUE+</title>
  <g fill="none" fill-rule="evenodd">
    <path
      fill="#11AEB3"
      d="M62 15c31 0 53 21 53 50 0 14-5 27-14 36l12 13H84l-4-5c-6 3-12 5-20 5-31 0-53-21-53-50S31 15 62 15Zm0 24c-16 0-27 11-27 26s11 26 27 26c3 0 6 0 8-1L58 77h29c2-4 3-8 3-12 0-15-11-26-28-26Zm82-20v53c0 12 7 19 19 19 11 0 18-7 18-19V19h28v54c0 27-18 42-47 42s-47-15-47-42V19h29Zm138 0v24h-59v12h53v22h-53v13h61v24h-89V19h87Z"
    />
    <path
      fill="#FF9700"
      d="M346 13c9 0 15 6 15 15v21h22c9 0 15 6 15 15s-6 15-15 15h-22v21c0 9-6 15-15 15s-15-6-15-15V79h-22c-9 0-15-6-15-15s6-15 15-15h22V28c0-9 6-15 15-15Z"
    />
  </g>
</svg>
